<svg xmlns="http://www.w3.org/2000/svg" viewBox="1.6 6 91 14.2">
	<path d="M10.9 18.7 l0 1.3 l-5.8 0 c-2.1 0 -3.5 -1.4 -3.5 -3.3 l0 -7.4 c0 -1.9 1.4 -3.3 3.5 -3.3 l5.8 0 l0 0.9 l-0.4 0.4 l-5.4 0 c-1.1 0 -2 0.9 -2 2 l0 7.4 c0 1.1 0.9 2 2 2 l5.8 0 z M14.399999999999999 12.4 l0 5 c0 0.9 0.7 1.6 1.6 1.6 l2.5 0 c0.9 0 1.6 -0.7 1.6 -1.6 l0 -5 c0 -0.9 -0.7 -1.6 -1.6 -1.6 l-2.5 0 c-0.9 0 -1.6 0.7 -1.6 1.6 z M13 17.4 l0 -5 c0 -1.6 1.2 -2.8 3 -2.8 l2.5 0 c1.8 0 3 1.2 3 2.8 l0 5 c0 1.6 -1.2 2.8 -3 2.8 l-2.5 0 c-1.9 0 -3 -1.2 -3 -2.8 z M29.099999999999998 20.2 l-1.8 0 c-1.8 0 -3 -1.2 -3 -2.8 l0 -4.8 c0 -1.6 1.2 -2.8 3 -2.8 l4.1 0 l0 -3.8 l1.4 0 l0 14 l-0.9 0 l-0.2 -1.4 l-0.1 0 s-0.8 1.6 -2.5 1.6 z M27.299999999999997 19 l1.8 0 c1.5 0 2.3 -1.8 2.3 -1.8 l0 -6.2 l-4.1 0 c-0.9 0 -1.6 0.7 -1.6 1.6 l0 4.8 c0 0.9 0.7 1.6 1.6 1.6 z M43.599999999999994 20 l-4.8 0 c-1.9 0 -3 -1.2 -3 -2.8 l0 -4.8 c0 -1.6 1.2 -2.8 3 -2.8 l2.2 0 c1.8 0 3 1.2 3 2.8 l0 3.1 l-6.8 0 l0 1.7 c0 0.9 0.7 1.6 1.6 1.6 l4.8 0 l0 1.2 z M37.199999999999996 12.4 l0 1.9 l5.4 0 l0 -1.9 c0 -0.9 -0.7 -1.6 -1.6 -1.6 l-2.2 0 c-0.9 0 -1.6 0.7 -1.6 1.6 z M55.599999999999994 20 l-6.8 -11.5 l-0.1 0 l0.2 2.6 l0 8.9 l-1.5 0 l0 -14 l1.6 0 l6.8 11.5 l0.1 0 l-0.2 -2.6 l0 -8.9 l1.5 0 l0 14 l-1.6 0 z M61.2 20 l0 -14 l9.1 0 l0 0.9 l-0.4 0.4 l-7.2 0 l0 4.9 l5.7 0 l0 1.3 l-5.7 0 l0 5.2 l7.6 0 l0 1.3 l-9.1 0 z M72 9.9 l0 -0.6 c0 -1.9 1.4 -3.3 3.5 -3.3 l5.5 0 l0 0.9 l-0.4 0.4 l-5.1 0 c-1.1 0 -2 0.9 -2 2 l0 0.6 c0 1.1 0.6 1.68 1.6 1.9 l3.7 0.8 c1.4 0.3 2.5 1.4 2.5 3.2 l0 0.9 c0 1.9 -1.4 3.3 -3.5 3.3 l-6 0 l0 -1.3 l6 0 c1.1 0 2 -0.9 2 -2 l0 -0.9 c0 -1.1 -0.6 -1.68 -1.6 -1.9 l-3.7 -0.8 c-1.4 -0.3 -2.5 -1.4 -2.5 -3.2 z  M88.2 7.300000000000001 l0 12.7 l-1.5 0 l0 -12.7 l-4.4 0 l0 -1.3 l10.3 0 l0 0.9 l-0.4 0.4 l-4 0 z" fill="#000000"/>
</svg>