<svg xmlns="http://www.w3.org/2000/svg" viewBox="0.49465 5.9625 612.7 14.06">
	<path d="M2.861 15.8021 l1.885 0 l-0.93583 -7.6738 z M0.49465 20.026738 l1.6711 -13.596 l-0.33422 -0.40107 l3.5695 0 l1.7246 13.997 l-1.8583 0 l-0.25401 -2.1123 l-2.9545 -0.013369 l0.49465 0.3877 l-0.2139 1.738 l-1.8449 0 z M27.620351871657753 17.9011 l2.1658 0 l0 -9.7727 l-2.7005 0 l0.53476 0.41444 l0 9.3583 z M31.617651871657753 7.34 l0 11.35 c0 0.74866 -0.57487 1.3235 -1.3235 1.3235 l-3.1818 0 c-0.74866 0 -1.3235 -0.57487 -1.3235 -1.3235 l0 -11.35 c0 -0.70856 0.57487 -1.3235 1.3235 -1.3235 l3.1818 0 c0.74866 0 1.3235 0.61497 1.3235 1.3235 z M41.69790213903743 11.9251 l2.1524 0 l0 -3.8369 l-2.7005 0 l0.54813 0.41444 l0 3.4225 z M45.68180213903743 7.313000000000001 l0 5.4011 c0 0.70856 -0.57487 1.3235 -1.3235 1.3235 l-3.2086 0 l0.54813 0.41444 l0 5.5348 l-1.8449 0 l0 -13.596 l-0.33422 -0.41444 l4.8396 0 c0.74866 0 1.3235 0.58824 1.3235 1.3369 z M53.569516791443846 6.43 l-0.33422 -0.41444 l5.254 0 l0 2.1123 l-3.623 0 l0.54813 0.41444 l0 3.4091 l2.1658 0 l0 2.1257 l-2.7139 0 l0.54813 0.40107 l0 3.4225 l3.0749 0 l0 2.1123 l-4.9198 0 l0 -2.1123 l0 -3.8235 l0 -2.1257 l0 -5.5214 z M66.35026818181817 6.003 l2.6203 0 l1.7112 7.6337 l0 -7.6203 l1.8316 0 l0 13.984 l-2.2861 0 l-1.6979 -7.5936 l0 7.607 l-1.8449 0 l0 -13.596 z M86.43048609625667 7.34 l0 2.8877 l-1.8316 0 l0 -2.1123 l-2.7005 0 l0.53476 0.41444 l0 1.6979 l3.9973 4.9064 l0 2.1123 l0 1.4439 c0 0.70856 -0.57487 1.3235 -1.3235 1.3235 l-3.1818 0 c-0.74866 0 -1.3235 -0.61497 -1.3235 -1.3235 l0 -2.9813 l1.8316 0 l0 2.1925 l2.1658 0 l0 -2.1123 l-3.9973 -4.9064 l0 -3.5428 c0 -0.74866 0.57487 -1.3235 1.3235 -1.3235 l3.1818 0 c0.74866 0 1.3235 0.57487 1.3235 1.3235 z M96.35029839572192 17.9011 l2.1658 0 l0 -9.7727 l-2.7005 0 l0.53476 0.41444 l0 9.3583 z M100.34759839572192 7.34 l0 11.35 c0 0.74866 -0.57487 1.3235 -1.3235 1.3235 l-3.1818 0 c-0.74866 0 -1.3235 -0.57487 -1.3235 -1.3235 l0 -11.35 c0 -0.70856 0.57487 -1.3235 1.3235 -1.3235 l3.1818 0 c0.74866 0 1.3235 0.61497 1.3235 1.3235 z M110.4144139037433 17.9011 l2.1524 0 l0 -11.898 l1.8449 0 l0 12.674 c0 0.74866 -0.61497 1.3235 -1.3235 1.3235 l-3.1818 0.013369 c-0.74866 0 -1.3235 -0.58824 -1.3235 -1.3369 l0 -12.259 l-0.013369 0 l-0.33422 -0.41444 l2.1791 0 l0 11.898 z M124.77277165775399 11.9118 l2.1524 0 l0 -3.8369 l-2.7005 0 l0.54813 0.41444 l0 3.4225 z M128.756671657754 7.2989999999999995 l0 5.4011 c0 0.74866 -0.57487 1.3235 -1.3235 1.3235 l-0.25401 0 l1.5775 5.9492 l-1.8984 0 l-1.5775 -5.9492 l-1.0561 0 l0.54813 0.41444 l0 5.5348 l-1.8449 0 l0 -11.898 l0 -1.6979 l-0.33422 -0.41444 l4.8396 0.013369 c0.74866 0 1.3235 0.57487 1.3235 1.3235 z M138.22193636363636 6.003 l3.5829 0 l0 2.1123 l-3.623 0 l0.54813 0.40107 c-0.053476 2.3529 -0.053476 7.0321 0 9.3717 l3.0749 0 l0 2.1123 l-3.5829 0 c-0.74866 0 -1.3235 -0.57487 -1.3235 -1.3235 l0 -11.35 c0 -0.74866 0.57487 -1.3235 1.3235 -1.3235 z M149.87967721925133 6.43 l-0.33422 -0.41444 l5.254 0 l0 2.1123 l-3.623 0 l0.54813 0.41444 l0 3.4091 l2.1658 0 l0 2.1257 l-2.7139 0 l0.54813 0.40107 l0 3.4225 l3.0749 0 l0 2.1123 l-4.9198 0 l0 -2.1123 l0 -3.8235 l0 -2.1257 l0 -5.5214 z M175.52139679144383 17.9011 l2.1524 0 l0 -9.7727 l-2.7005 0 l0.54813 0.41444 l0 9.3583 z M179.51869679144383 7.34 l0 11.35 c0 0.74866 -0.58824 1.3235 -1.3369 1.3235 l-4.5053 0 l0 -2.1123 l0 -11.471 l-0.33422 -0.41444 l4.8396 0 c0.73529 0 1.3369 0.61497 1.3369 1.3235 z M187.75400877005347 6.43 l-0.33422 -0.41444 l5.254 0 l0 2.1123 l-3.623 0 l0.54813 0.41444 l0 3.4091 l2.1658 0 l0 2.1257 l-2.7139 0 l0.54813 0.40107 l0 3.4225 l3.0749 0 l0 2.1123 l-4.9198 0 l0 -2.1123 l0 -3.8235 l0 -2.1257 l0 -5.5214 z M200.36095812834222 6.016 l2.139 0 l1.2433 10.053 l1.2299 -10.053 l1.8449 0 l-1.7112 13.997 l-2.7406 0 l-1.6578 -13.583 l-0.013369 0 z M215.16042588235294 6.43 l-0.33422 -0.41444 l5.254 0 l0 2.1123 l-3.623 0 l0.54813 0.41444 l0 3.4091 l2.1658 0 l0 2.1257 l-2.7139 0 l0.54813 0.40107 l0 3.4225 l3.0749 0 l0 2.1123 l-4.9198 0 l0 -2.1123 l0 -3.8235 l0 -2.1257 l0 -5.5214 z M227.90106711229944 6.016 l2.1791 0 l0 11.885 l3.0749 0 l0 2.1123 l-4.9198 0 l0 -0.013369 l0 -2.0989 l0 -11.484 z M242.70056577540103 17.9011 l2.1658 0 l0 -9.7727 l-2.7005 0 l0.53476 0.41444 l0 9.3583 z M246.69786577540106 7.34 l0 11.35 c0 0.74866 -0.57487 1.3235 -1.3235 1.3235 l-3.1818 0 c-0.74866 0 -1.3235 -0.57487 -1.3235 -1.3235 l0 -11.35 c0 -0.70856 0.57487 -1.3235 1.3235 -1.3235 l3.1818 0 c0.74866 0 1.3235 0.61497 1.3235 1.3235 z M256.77811604278077 11.9251 l2.1524 0 l0 -3.8369 l-2.7005 0 l0.54813 0.41444 l0 3.4225 z M260.7620160427807 7.313000000000001 l0 5.4011 c0 0.70856 -0.57487 1.3235 -1.3235 1.3235 l-3.2086 0 l0.54813 0.41444 l0 5.5348 l-1.8449 0 l0 -13.596 l-0.33422 -0.41444 l4.8396 0 c0.74866 0 1.3235 0.58824 1.3235 1.3369 z M268.3155098395722 6.016 l3.0882 0 l1.2433 4.7193 l1.2567 -4.7193 l2.754 0 l-0.013369 13.997 l-1.8316 0 l0 -10.267 l-2.1658 8.1283 l0 0.013369 l0 -0.013369 l0 0.013369 l0 -0.013369 l-2.1524 -8.1283 l0 10.267 l-1.8449 0 l0 -13.596 z M285.16042588235297 6.43 l-0.33422 -0.41444 l5.254 0 l0 2.1123 l-3.623 0 l0.54813 0.41444 l0 3.4091 l2.1658 0 l0 2.1257 l-2.7139 0 l0.54813 0.40107 l0 3.4225 l3.0749 0 l0 2.1123 l-4.9198 0 l0 -2.1123 l0 -3.8235 l0 -2.1257 l0 -5.5214 z M297.9411772727273 6.003 l2.6203 0 l1.7112 7.6337 l0 -7.6203 l1.8316 0 l0 13.984 l-2.2861 0 l-1.6979 -7.5936 l0 7.607 l-1.8449 0 l0 -13.596 z M313.997285026738 8.102 l-1.992 0 l0 -2.1257 l5.8289 0 l0 2.1257 l-2.5401 0 l0.54813 0.40107 l0 11.484 l-1.8449 0 l0 -11.885 z M337.64707005347594 6.003 l3.5829 0 l0 2.1123 l-3.623 0 l0.54813 0.40107 c-0.053476 2.3529 -0.053476 7.0321 0 9.3717 l3.0749 0 l0 2.1123 l-3.5829 0 c-0.74866 0 -1.3235 -0.57487 -1.3235 -1.3235 l0 -11.35 c0 -0.74866 0.57487 -1.3235 1.3235 -1.3235 z M348.9572168449198 6.016 l2.1791 0 l0 11.885 l3.0749 0 l0 2.1123 l-4.9198 0 l0 -0.013369 l0 -2.0989 l0 -11.484 z M363.7700288770054 17.9011 l2.1524 0 l0 -11.898 l1.8449 0 l0 12.674 c0 0.74866 -0.61497 1.3235 -1.3235 1.3235 l-3.1818 0.013369 c-0.74866 0 -1.3235 -0.58824 -1.3235 -1.3369 l0 -12.259 l-0.013369 0 l-0.33422 -0.41444 l2.1791 0 l0 11.898 z M377.56687967914445 14.090900000000001 l0.54813 0.40107 l0 3.4225 l2.1524 0 l0 -3.8235 l-2.7005 0 z M378.1149796791444 8.556 l0 3.4091 l2.1524 0 l0 -3.8235 l-2.7005 0 z M382.1122796791444 7.353 l0 4.3449 c0 0.74866 -0.61497 1.3235 -1.3235 1.3235 c0.70856 0 1.3235 0.61497 1.3235 1.3235 l0 4.3583 c0 0.74866 -0.61497 1.3235 -1.3235 1.3235 l-4.5187 0 l0 -13.596 l-0.33422 -0.40107 l4.8529 0 c0.70856 0 1.3235 0.61497 1.3235 1.3235 z M402.80751764705883 17.9011 l2.1658 0 l0 -9.7727 l-2.7005 0 l0.53476 0.41444 l0 9.3583 z M406.8048176470588 7.34 l0 11.35 c0 0.74866 -0.57487 1.3235 -1.3235 1.3235 l-3.1818 0 c-0.74866 0 -1.3235 -0.57487 -1.3235 -1.3235 l0 -11.35 c0 -0.70856 0.57487 -1.3235 1.3235 -1.3235 l3.1818 0 c0.74866 0 1.3235 0.61497 1.3235 1.3235 z M415.0534758823529 6.390000000000001 l-0.33422 -0.41444 l5.254 0 l0 2.1123 l-3.623 0 l0.54813 0.41444 l0 3.4225 l2.1524 0 l0 2.1123 l-2.7005 0 l0.54813 0.41444 l0 5.5214 l-1.8449 0 l0 -13.583 z M438.50267459893047 6.003 l2.6203 0 l1.7112 7.6337 l0 -7.6203 l1.8316 0 l0 13.984 l-2.2861 0 l-1.6979 -7.5936 l0 7.607 l-1.8449 0 l0 -13.596 z M458.58289251336896 7.34 l0 2.8877 l-1.8316 0 l0 -2.1123 l-2.7005 0 l0.53476 0.41444 l0 1.6979 l3.9973 4.9064 l0 2.1123 l0 1.4439 c0 0.70856 -0.57487 1.3235 -1.3235 1.3235 l-3.1818 0 c-0.74866 0 -1.3235 -0.61497 -1.3235 -1.3235 l0 -2.9813 l1.8316 0 l0 2.1925 l2.1658 0 l0 -2.1123 l-3.9973 -4.9064 l0 -3.5428 c0 -0.74866 0.57487 -1.3235 1.3235 -1.3235 l3.1818 0 c0.74866 0 1.3235 0.57487 1.3235 1.3235 z M468.5428181818182 5.976000000000001 l0 5.9358 l2.1524 0 l0 -5.9358 l1.8316 0 l0 13.997 l-1.8316 0 l0 -5.9492 l-2.7005 0 l0.54813 0.41444 l0 5.5348 l-1.8449 0 l0 -13.596 l-0.33422 -0.40107 l2.1791 0 z M480.7219269518717 6.016 l3.0882 0 l1.2433 4.7193 l1.2567 -4.7193 l2.754 0 l-0.013369 13.997 l-1.8316 0 l0 -10.267 l-2.1658 8.1283 l0 0.013369 l0 -0.013369 l0 0.013369 l0 -0.013369 l-2.1524 -8.1283 l0 10.267 l-1.8449 0 l0 -13.596 z M510.1738032085562 17.9011 l2.1524 0 l0 -9.7727 l-2.7005 0 l0.54813 0.41444 l0 9.3583 z M514.1711032085562 7.34 l0 11.35 c0 0.74866 -0.58824 1.3235 -1.3369 1.3235 l-4.5053 0 l0 -2.1123 l0 -11.471 l-0.33422 -0.41444 l4.8396 0 c0.73529 0 1.3369 0.61497 1.3369 1.3235 z M524.2379433155081 17.9011 l2.1524 0 l0 -11.898 l1.8449 0 l0 12.674 c0 0.74866 -0.61497 1.3235 -1.3235 1.3235 l-3.1818 0.013369 c-0.74866 0 -1.3235 -0.58824 -1.3235 -1.3369 l0 -12.259 l-0.013369 0 l-0.33422 -0.41444 l2.1791 0 l0 11.898 z M538.5963010695189 11.9118 l2.1524 0 l0 -3.8369 l-2.7005 0 l0.54813 0.41444 l0 3.4225 z M542.5802010695188 7.2989999999999995 l0 5.4011 c0 0.74866 -0.57487 1.3235 -1.3235 1.3235 l-0.25401 0 l1.5775 5.9492 l-1.8984 0 l-1.5775 -5.9492 l-1.0561 0 l0.54813 0.41444 l0 5.5348 l-1.8449 0 l0 -11.898 l0 -1.6979 l-0.33422 -0.41444 l4.8396 0.013369 c0.74866 0 1.3235 0.57487 1.3235 1.3235 z M556.5642139037435 7.34 l0 3.5829 l-1.8316 0 l0 -2.7941 l-2.7005 0 l0.53476 0.41444 l0 9.3583 l2.1658 0 l0 -5.5348 l-0.54813 -0.41444 l2.3797 0 l0 8.0615 l-4.5053 0 c-0.74866 0 -1.3235 -0.57487 -1.3235 -1.3235 l0 -11.35 c0 -0.70856 0.57487 -1.3235 1.3235 -1.3235 l3.1818 0 c0.74866 0 1.3235 0.61497 1.3235 1.3235 z M566.9652780748665 15.8021 l1.885 0 l-0.93583 -7.6738 z M564.5989280748665 20.026738 l1.6711 -13.596 l-0.33422 -0.40107 l3.5695 0 l1.7246 13.997 l-1.8583 0 l-0.25401 -2.1123 l-2.9545 -0.013369 l0.49465 0.3877 l-0.2139 1.738 l-1.8449 0 z M581.1631427807489 11.9251 l2.1524 0 l0 -3.8369 l-2.7005 0 l0.54813 0.41444 l0 3.4225 z M585.1470427807488 7.313000000000001 l0 5.4011 c0 0.70856 -0.57487 1.3235 -1.3235 1.3235 l-3.2086 0 l0.54813 0.41444 l0 5.5348 l-1.8449 0 l0 -13.596 l-0.33422 -0.41444 l4.8396 0 c0.74866 0 1.3235 0.58824 1.3235 1.3369 z M594.8796545454549 17.9011 l2.1524 0 l0 -11.898 l1.8449 0 l0 12.674 c0 0.74866 -0.61497 1.3235 -1.3235 1.3235 l-3.1818 0.013369 c-0.74866 0 -1.3235 -0.58824 -1.3235 -1.3369 l0 -12.259 l-0.013369 0 l-0.33422 -0.41444 l2.1791 0 l0 11.898 z M609.2380122994656 11.9118 l2.1524 0 l0 -3.8369 l-2.7005 0 l0.54813 0.41444 l0 3.4225 z M613.2219122994655 7.2989999999999995 l0 5.4011 c0 0.74866 -0.57487 1.3235 -1.3235 1.3235 l-0.25401 0 l1.5775 5.9492 l-1.8984 0 l-1.5775 -5.9492 l-1.0561 0 l0.54813 0.41444 l0 5.5348 l-1.8449 0 l0 -11.898 l0 -1.6979 l-0.33422 -0.41444 l4.8396 0.013369 c0.74866 0 1.3235 0.57487 1.3235 1.3235 z" fill="#000000"/>
</svg>